<?xml version="1.0" encoding="UTF-8"?>
<svg xmlns="http://www.w3.org/2000/svg" width="1280" height="720" viewBox="0 0 1280 720" role="img" aria-labelledby="title desc">
  <title id="title">오래된 위성 신호</title>
  <desc id="desc">ANOMALY event illustration for DOWNLINK.</desc>
  <rect width="1280" height="720" fill="#161620"/>
  <rect x="72" y="70" width="1136" height="580" rx="18" fill="#222038" opacity="0.38"/>
  <path d="M0 640h1280M0 112h1280M88 0v720M1192 0v720" stroke="#5c4b83" stroke-width="2" opacity="0.34"/>
  <rect x="80" y="586" width="34" height="44" fill="#a48ad4" opacity="0.08"/><rect x="152" y="572" width="34" height="58" fill="#a48ad4" opacity="0.10500000000000001"/><rect x="224" y="565" width="34" height="65" fill="#a48ad4" opacity="0.13"/><rect x="296" y="578" width="34" height="52" fill="#a48ad4" opacity="0.15500000000000003"/><rect x="368" y="584" width="34" height="46" fill="#a48ad4" opacity="0.08"/><rect x="440" y="587" width="34" height="43" fill="#a48ad4" opacity="0.10500000000000001"/><rect x="512" y="589" width="34" height="41" fill="#a48ad4" opacity="0.13"/><rect x="584" y="574" width="34" height="56" fill="#a48ad4" opacity="0.15500000000000003"/><rect x="656" y="582" width="34" height="48" fill="#a48ad4" opacity="0.08"/><rect x="728" y="586" width="34" height="44" fill="#a48ad4" opacity="0.10500000000000001"/><rect x="800" y="572" width="34" height="58" fill="#a48ad4" opacity="0.13"/><rect x="872" y="565" width="34" height="65" fill="#a48ad4" opacity="0.15500000000000003"/><rect x="944" y="562" width="34" height="68" fill="#a48ad4" opacity="0.08"/><rect x="1016" y="560" width="34" height="70" fill="#a48ad4" opacity="0.10500000000000001"/><rect x="1088" y="575" width="34" height="55" fill="#a48ad4" opacity="0.13"/><rect x="1160" y="583" width="34" height="47" fill="#a48ad4" opacity="0.15500000000000003"/>
  
    <path d="M260 560h720" stroke="#5c4b83" stroke-width="16"/>
    <path d="M620 560V240" stroke="#a48ad4" stroke-width="14"/>
    <circle cx="620" cy="210" r="32" fill="#a48ad4"/>
    <path d="M530 280q90 -100 180 0M455 340q165 -180 330 0M380 400q240 -260 480 0" fill="none" stroke="#a48ad4" stroke-width="12" opacity="0.52"/>
    <rect x="260" y="410" width="210" height="90" fill="#222038" stroke="#5c4b83" stroke-width="5"/>
  
  <rect x="0" y="0" width="1280" height="720" fill="none" stroke="#a48ad4" stroke-width="10" opacity="0.18"/>
  <text x="86" y="112" fill="#a48ad4" font-family="Pretendard, Noto Sans KR, sans-serif" font-size="26" font-weight="700" opacity="0.9">ANOMALY / A05</text>
</svg>
