<?xml version="1.0" encoding="UTF-8"?>
<svg xmlns="http://www.w3.org/2000/svg" width="1280" height="720" viewBox="0 0 1280 720" role="img" aria-labelledby="title desc">
  <title id="title">17번 씨앗</title>
  <desc id="desc">STORY event illustration for DOWNLINK.</desc>
  <rect width="1280" height="720" fill="#121b1d"/>
  <rect x="72" y="70" width="1136" height="580" rx="18" fill="#1e3031" opacity="0.38"/>
  <path d="M0 640h1280M0 112h1280M88 0v720M1192 0v720" stroke="#3e746e" stroke-width="2" opacity="0.34"/>
  <rect x="80" y="575" width="34" height="55" fill="#76c7b7" opacity="0.08"/><rect x="152" y="583" width="34" height="47" fill="#76c7b7" opacity="0.10500000000000001"/><rect x="224" y="587" width="34" height="43" fill="#76c7b7" opacity="0.13"/><rect x="296" y="589" width="34" height="41" fill="#76c7b7" opacity="0.15500000000000003"/><rect x="368" y="574" width="34" height="56" fill="#76c7b7" opacity="0.08"/><rect x="440" y="582" width="34" height="48" fill="#76c7b7" opacity="0.10500000000000001"/><rect x="512" y="570" width="34" height="60" fill="#76c7b7" opacity="0.13"/><rect x="584" y="580" width="34" height="50" fill="#76c7b7" opacity="0.15500000000000003"/><rect x="656" y="569" width="34" height="61" fill="#76c7b7" opacity="0.08"/><rect x="728" y="564" width="34" height="66" fill="#76c7b7" opacity="0.10500000000000001"/><rect x="800" y="561" width="34" height="69" fill="#76c7b7" opacity="0.13"/><rect x="872" y="576" width="34" height="54" fill="#76c7b7" opacity="0.15500000000000003"/><rect x="944" y="567" width="34" height="63" fill="#76c7b7" opacity="0.08"/><rect x="1016" y="563" width="34" height="67" fill="#76c7b7" opacity="0.10500000000000001"/><rect x="1088" y="577" width="34" height="53" fill="#76c7b7" opacity="0.13"/><rect x="1160" y="584" width="34" height="46" fill="#76c7b7" opacity="0.15500000000000003"/>
  
    <rect x="170" y="178" width="760" height="280" rx="8" fill="#1e3031" stroke="#3e746e" stroke-width="4"/>
    <path d="M220 250h660M220 330h660M220 410h660" stroke="#3e746e" stroke-width="5" opacity="0.7"/>
    <rect x="250" y="470" width="120" height="80" fill="#76c7b7" opacity="0.82"/>
    <rect x="400" y="490" width="150" height="60" fill="#76c7b7" opacity="0.52"/>
    <circle cx="290" cy="520" r="15" fill="#76c7b7" opacity="0.9"/><path d="M268 568q22 -28 44 0v62h-44z" fill="#76c7b7" opacity="0.6"/><circle cx="356" cy="520" r="15" fill="#76c7b7" opacity="0.9"/><path d="M334 568q22 -28 44 0v62h-44z" fill="#76c7b7" opacity="0.6"/><circle cx="422" cy="520" r="15" fill="#76c7b7" opacity="0.9"/><path d="M400 568q22 -28 44 0v62h-44z" fill="#76c7b7" opacity="0.6"/><circle cx="488" cy="520" r="15" fill="#76c7b7" opacity="0.9"/><path d="M466 568q22 -28 44 0v62h-44z" fill="#76c7b7" opacity="0.6"/>
  
  <rect x="0" y="0" width="1280" height="720" fill="none" stroke="#76c7b7" stroke-width="10" opacity="0.18"/>
  <text x="86" y="112" fill="#76c7b7" font-family="Pretendard, Noto Sans KR, sans-serif" font-size="26" font-weight="700" opacity="0.9">STORY / CS01</text>
</svg>
