<?xml version="1.0" encoding="UTF-8"?>
<svg xmlns="http://www.w3.org/2000/svg" width="1280" height="720" viewBox="0 0 1280 720" role="img" aria-labelledby="title desc">
  <title id="title">진압 명령 0호</title>
  <desc id="desc">STORY event illustration for DOWNLINK.</desc>
  <rect width="1280" height="720" fill="#121b1d"/>
  <rect x="72" y="70" width="1136" height="580" rx="18" fill="#1e3031" opacity="0.38"/>
  <path d="M0 640h1280M0 112h1280M88 0v720M1192 0v720" stroke="#3e746e" stroke-width="2" opacity="0.34"/>
  <rect x="80" y="590" width="34" height="40" fill="#76c7b7" opacity="0.08"/><rect x="152" y="574" width="34" height="56" fill="#76c7b7" opacity="0.10500000000000001"/><rect x="224" y="566" width="34" height="64" fill="#76c7b7" opacity="0.13"/><rect x="296" y="562" width="34" height="68" fill="#76c7b7" opacity="0.15500000000000003"/><rect x="368" y="560" width="34" height="70" fill="#76c7b7" opacity="0.08"/><rect x="440" y="559" width="34" height="71" fill="#76c7b7" opacity="0.10500000000000001"/><rect x="512" y="575" width="34" height="55" fill="#76c7b7" opacity="0.13"/><rect x="584" y="567" width="34" height="63" fill="#76c7b7" opacity="0.15500000000000003"/><rect x="656" y="579" width="34" height="51" fill="#76c7b7" opacity="0.08"/><rect x="728" y="585" width="34" height="45" fill="#76c7b7" opacity="0.10500000000000001"/><rect x="800" y="572" width="34" height="58" fill="#76c7b7" opacity="0.13"/><rect x="872" y="565" width="34" height="65" fill="#76c7b7" opacity="0.15500000000000003"/><rect x="944" y="562" width="34" height="68" fill="#76c7b7" opacity="0.08"/><rect x="1016" y="576" width="34" height="54" fill="#76c7b7" opacity="0.10500000000000001"/><rect x="1088" y="583" width="34" height="47" fill="#76c7b7" opacity="0.13"/><rect x="1160" y="571" width="34" height="59" fill="#76c7b7" opacity="0.15500000000000003"/>
  
    <path d="M330 470c40 -160 120 -240 280 -240s240 98 240 220c0 110 -96 160 -226 160h-220c-62 0 -90 -50 -74 -140z" fill="#1e3031" stroke="#76c7b7" stroke-width="7"/>
    <path d="M440 330c70 28 150 28 230 0M440 420c90 -34 170 -34 260 0" stroke="#3e746e" stroke-width="12" fill="none" opacity="0.82"/>
    <path d="M900 240q120 110 0 220M955 195q190 160 0 330" stroke="#76c7b7" stroke-width="10" fill="none" opacity="0.45"/>
  
  <rect x="0" y="0" width="1280" height="720" fill="none" stroke="#76c7b7" stroke-width="10" opacity="0.18"/>
  <text x="86" y="112" fill="#76c7b7" font-family="Pretendard, Noto Sans KR, sans-serif" font-size="26" font-weight="700" opacity="0.9">STORY / CT01</text>
</svg>
