<?xml version="1.0" encoding="UTF-8"?>
<svg xmlns="http://www.w3.org/2000/svg" width="1280" height="720" viewBox="0 0 1280 720" role="img" aria-labelledby="title desc">
  <title id="title">약 부족</title>
  <desc id="desc">DISEASE event illustration for DOWNLINK.</desc>
  <rect width="1280" height="720" fill="#151b18"/>
  <rect x="72" y="70" width="1136" height="580" rx="18" fill="#203027" opacity="0.38"/>
  <path d="M0 640h1280M0 112h1280M88 0v720M1192 0v720" stroke="#4e7553" stroke-width="2" opacity="0.34"/>
  <rect x="80" y="560" width="34" height="70" fill="#8fc779" opacity="0.08"/><rect x="152" y="575" width="34" height="55" fill="#8fc779" opacity="0.10500000000000001"/><rect x="224" y="583" width="34" height="47" fill="#8fc779" opacity="0.13"/><rect x="296" y="571" width="34" height="59" fill="#8fc779" opacity="0.15500000000000003"/><rect x="368" y="581" width="34" height="49" fill="#8fc779" opacity="0.08"/><rect x="440" y="586" width="34" height="44" fill="#8fc779" opacity="0.10500000000000001"/><rect x="512" y="588" width="34" height="42" fill="#8fc779" opacity="0.13"/><rect x="584" y="589" width="34" height="41" fill="#8fc779" opacity="0.15500000000000003"/><rect x="656" y="590" width="34" height="40" fill="#8fc779" opacity="0.08"/><rect x="728" y="574" width="34" height="56" fill="#8fc779" opacity="0.10500000000000001"/><rect x="800" y="566" width="34" height="64" fill="#8fc779" opacity="0.13"/><rect x="872" y="562" width="34" height="68" fill="#8fc779" opacity="0.15500000000000003"/><rect x="944" y="576" width="34" height="54" fill="#8fc779" opacity="0.08"/><rect x="1016" y="583" width="34" height="47" fill="#8fc779" opacity="0.10500000000000001"/><rect x="1088" y="571" width="34" height="59" fill="#8fc779" opacity="0.13"/><rect x="1160" y="565" width="34" height="65" fill="#8fc779" opacity="0.15500000000000003"/>
  
    <rect x="230" y="210" width="780" height="330" rx="14" fill="#203027" stroke="#4e7553" stroke-width="6"/>
    <path d="M290 290h660M290 390h660" stroke="#4e7553" stroke-width="5" opacity="0.7"/>
    <path d="M585 275h70v70h70v70h-70v70h-70v-70h-70v-70h70z" fill="#8fc779" opacity="0.78"/>
    <path d="M230 210l780 330M1010 210L230 540" stroke="#8fc779" stroke-width="7" opacity="0.24"/>
  
  <rect x="0" y="0" width="1280" height="720" fill="none" stroke="#8fc779" stroke-width="10" opacity="0.18"/>
  <text x="86" y="112" fill="#8fc779" font-family="Pretendard, Noto Sans KR, sans-serif" font-size="26" font-weight="700" opacity="0.9">DISEASE / D03</text>
</svg>
