<?xml version="1.0" encoding="UTF-8"?>
<svg xmlns="http://www.w3.org/2000/svg" width="1280" height="720" viewBox="0 0 1280 720" role="img" aria-labelledby="title desc">
  <title id="title">배급 지연</title>
  <desc id="desc">SURVIVAL event illustration for DOWNLINK.</desc>
  <rect width="1280" height="720" fill="#171a1d"/>
  <rect x="72" y="70" width="1136" height="580" rx="18" fill="#26291f" opacity="0.38"/>
  <path d="M0 640h1280M0 112h1280M88 0v720M1192 0v720" stroke="#7b6b47" stroke-width="2" opacity="0.34"/>
  <rect x="80" y="560" width="34" height="70" fill="#d9b15f" opacity="0.08"/><rect x="152" y="559" width="34" height="71" fill="#d9b15f" opacity="0.10500000000000001"/><rect x="224" y="559" width="34" height="71" fill="#d9b15f" opacity="0.13"/><rect x="296" y="575" width="34" height="55" fill="#d9b15f" opacity="0.15500000000000003"/><rect x="368" y="567" width="34" height="63" fill="#d9b15f" opacity="0.08"/><rect x="440" y="579" width="34" height="51" fill="#d9b15f" opacity="0.10500000000000001"/><rect x="512" y="569" width="34" height="61" fill="#d9b15f" opacity="0.13"/><rect x="584" y="580" width="34" height="50" fill="#d9b15f" opacity="0.15500000000000003"/><rect x="656" y="585" width="34" height="45" fill="#d9b15f" opacity="0.08"/><rect x="728" y="588" width="34" height="42" fill="#d9b15f" opacity="0.10500000000000001"/><rect x="800" y="573" width="34" height="57" fill="#d9b15f" opacity="0.13"/><rect x="872" y="566" width="34" height="64" fill="#d9b15f" opacity="0.15500000000000003"/><rect x="944" y="578" width="34" height="52" fill="#d9b15f" opacity="0.08"/><rect x="1016" y="568" width="34" height="62" fill="#d9b15f" opacity="0.10500000000000001"/><rect x="1088" y="579" width="34" height="51" fill="#d9b15f" opacity="0.13"/><rect x="1160" y="569" width="34" height="61" fill="#d9b15f" opacity="0.15500000000000003"/>
  
    <rect x="170" y="178" width="760" height="280" rx="8" fill="#26291f" stroke="#7b6b47" stroke-width="4"/>
    <path d="M220 250h660M220 330h660M220 410h660" stroke="#7b6b47" stroke-width="5" opacity="0.7"/>
    <rect x="250" y="470" width="120" height="80" fill="#d9b15f" opacity="0.82"/>
    <rect x="400" y="490" width="150" height="60" fill="#d9b15f" opacity="0.52"/>
    <circle cx="290" cy="520" r="15" fill="#d9b15f" opacity="0.9"/><path d="M268 568q22 -28 44 0v62h-44z" fill="#d9b15f" opacity="0.6"/><circle cx="356" cy="520" r="15" fill="#d9b15f" opacity="0.9"/><path d="M334 568q22 -28 44 0v62h-44z" fill="#d9b15f" opacity="0.6"/><circle cx="422" cy="520" r="15" fill="#d9b15f" opacity="0.9"/><path d="M400 568q22 -28 44 0v62h-44z" fill="#d9b15f" opacity="0.6"/><circle cx="488" cy="520" r="15" fill="#d9b15f" opacity="0.9"/><path d="M466 568q22 -28 44 0v62h-44z" fill="#d9b15f" opacity="0.6"/>
  
  <rect x="0" y="0" width="1280" height="720" fill="none" stroke="#d9b15f" stroke-width="10" opacity="0.18"/>
  <text x="86" y="112" fill="#d9b15f" font-family="Pretendard, Noto Sans KR, sans-serif" font-size="26" font-weight="700" opacity="0.9">SURVIVAL / S01</text>
</svg>
