<?xml version="1.0" encoding="UTF-8"?>
<svg xmlns="http://www.w3.org/2000/svg" width="1280" height="720" viewBox="0 0 1280 720" role="img" aria-labelledby="title desc">
  <title id="title">발전기 소음</title>
  <desc id="desc">SURVIVAL event illustration for DOWNLINK.</desc>
  <rect width="1280" height="720" fill="#171a1d"/>
  <rect x="72" y="70" width="1136" height="580" rx="18" fill="#26291f" opacity="0.38"/>
  <path d="M0 640h1280M0 112h1280M88 0v720M1192 0v720" stroke="#7b6b47" stroke-width="2" opacity="0.34"/>
  <rect x="80" y="562" width="34" height="68" fill="#d9b15f" opacity="0.08"/><rect x="152" y="560" width="34" height="70" fill="#d9b15f" opacity="0.10500000000000001"/><rect x="224" y="575" width="34" height="55" fill="#d9b15f" opacity="0.13"/><rect x="296" y="567" width="34" height="63" fill="#d9b15f" opacity="0.15500000000000003"/><rect x="368" y="563" width="34" height="67" fill="#d9b15f" opacity="0.08"/><rect x="440" y="561" width="34" height="69" fill="#d9b15f" opacity="0.10500000000000001"/><rect x="512" y="560" width="34" height="70" fill="#d9b15f" opacity="0.13"/><rect x="584" y="575" width="34" height="55" fill="#d9b15f" opacity="0.15500000000000003"/><rect x="656" y="583" width="34" height="47" fill="#d9b15f" opacity="0.08"/><rect x="728" y="571" width="34" height="59" fill="#d9b15f" opacity="0.10500000000000001"/><rect x="800" y="581" width="34" height="49" fill="#d9b15f" opacity="0.13"/><rect x="872" y="586" width="34" height="44" fill="#d9b15f" opacity="0.15500000000000003"/><rect x="944" y="572" width="34" height="58" fill="#d9b15f" opacity="0.08"/><rect x="1016" y="565" width="34" height="65" fill="#d9b15f" opacity="0.10500000000000001"/><rect x="1088" y="578" width="34" height="52" fill="#d9b15f" opacity="0.13"/><rect x="1160" y="568" width="34" height="62" fill="#d9b15f" opacity="0.15500000000000003"/>
  
    <rect x="250" y="180" width="730" height="360" rx="18" fill="#26291f" stroke="#7b6b47" stroke-width="6"/>
    <path d="M610 210l-80 150h92l-64 170 160-220h-100l70-100z" fill="#d9b15f" opacity="0.9"/>
    <path d="M310 250h140M310 330h120M800 270h120M790 380h150" stroke="#d9b15f" stroke-width="8" opacity="0.5"/>
  
  <rect x="0" y="0" width="1280" height="720" fill="none" stroke="#d9b15f" stroke-width="10" opacity="0.18"/>
  <text x="86" y="112" fill="#d9b15f" font-family="Pretendard, Noto Sans KR, sans-serif" font-size="26" font-weight="700" opacity="0.9">SURVIVAL / S04</text>
</svg>
