<?xml version="1.0" encoding="UTF-8"?>
<svg xmlns="http://www.w3.org/2000/svg" width="1280" height="720" viewBox="0 0 1280 720" role="img" aria-labelledby="title desc">
  <title id="title">폐쇄 구역 탐색</title>
  <desc id="desc">SURVIVAL event illustration for DOWNLINK.</desc>
  <rect width="1280" height="720" fill="#171a1d"/>
  <rect x="72" y="70" width="1136" height="580" rx="18" fill="#26291f" opacity="0.38"/>
  <path d="M0 640h1280M0 112h1280M88 0v720M1192 0v720" stroke="#7b6b47" stroke-width="2" opacity="0.34"/>
  <rect x="80" y="566" width="34" height="64" fill="#d9b15f" opacity="0.08"/><rect x="152" y="562" width="34" height="68" fill="#d9b15f" opacity="0.10500000000000001"/><rect x="224" y="576" width="34" height="54" fill="#d9b15f" opacity="0.13"/><rect x="296" y="583" width="34" height="47" fill="#d9b15f" opacity="0.15500000000000003"/><rect x="368" y="571" width="34" height="59" fill="#d9b15f" opacity="0.08"/><rect x="440" y="581" width="34" height="49" fill="#d9b15f" opacity="0.10500000000000001"/><rect x="512" y="586" width="34" height="44" fill="#d9b15f" opacity="0.13"/><rect x="584" y="588" width="34" height="42" fill="#d9b15f" opacity="0.15500000000000003"/><rect x="656" y="573" width="34" height="57" fill="#d9b15f" opacity="0.08"/><rect x="728" y="582" width="34" height="48" fill="#d9b15f" opacity="0.10500000000000001"/><rect x="800" y="570" width="34" height="60" fill="#d9b15f" opacity="0.13"/><rect x="872" y="564" width="34" height="66" fill="#d9b15f" opacity="0.15500000000000003"/><rect x="944" y="561" width="34" height="69" fill="#d9b15f" opacity="0.08"/><rect x="1016" y="560" width="34" height="70" fill="#d9b15f" opacity="0.10500000000000001"/><rect x="1088" y="575" width="34" height="55" fill="#d9b15f" opacity="0.13"/><rect x="1160" y="567" width="34" height="63" fill="#d9b15f" opacity="0.15500000000000003"/>
  
    <path d="M450 610V150h330v460" fill="#26291f" stroke="#d9b15f" stroke-width="8"/>
    <path d="M515 610V220h200v390" fill="#171a1d" stroke="#7b6b47" stroke-width="6"/>
    <circle cx="684" cy="412" r="12" fill="#d9b15f"/>
    <path d="M220 610h780M390 610l60 -460M840 610l-60 -460" stroke="#7b6b47" stroke-width="10" opacity="0.7"/>
  
  <rect x="0" y="0" width="1280" height="720" fill="none" stroke="#d9b15f" stroke-width="10" opacity="0.18"/>
  <text x="86" y="112" fill="#d9b15f" font-family="Pretendard, Noto Sans KR, sans-serif" font-size="26" font-weight="700" opacity="0.9">SURVIVAL / S11</text>
</svg>
