<?xml version="1.0" encoding="UTF-8"?>
<svg xmlns="http://www.w3.org/2000/svg" width="1280" height="720" viewBox="0 0 1280 720" role="img" aria-labelledby="title desc">
  <title id="title">지상 탐사 명령</title>
  <desc id="desc">STORY event illustration for DOWNLINK.</desc>
  <rect width="1280" height="720" fill="#121b1d"/>
  <rect x="72" y="70" width="1136" height="580" rx="18" fill="#1e3031" opacity="0.38"/>
  <path d="M0 640h1280M0 112h1280M88 0v720M1192 0v720" stroke="#3e746e" stroke-width="2" opacity="0.34"/>
  <rect x="80" y="589" width="34" height="41" fill="#76c7b7" opacity="0.08"/><rect x="152" y="590" width="34" height="40" fill="#76c7b7" opacity="0.10500000000000001"/><rect x="224" y="590" width="34" height="40" fill="#76c7b7" opacity="0.13"/><rect x="296" y="574" width="34" height="56" fill="#76c7b7" opacity="0.15500000000000003"/><rect x="368" y="582" width="34" height="48" fill="#76c7b7" opacity="0.08"/><rect x="440" y="586" width="34" height="44" fill="#76c7b7" opacity="0.10500000000000001"/><rect x="512" y="572" width="34" height="58" fill="#76c7b7" opacity="0.13"/><rect x="584" y="565" width="34" height="65" fill="#76c7b7" opacity="0.15500000000000003"/><rect x="656" y="578" width="34" height="52" fill="#76c7b7" opacity="0.08"/><rect x="728" y="568" width="34" height="62" fill="#76c7b7" opacity="0.10500000000000001"/><rect x="800" y="579" width="34" height="51" fill="#76c7b7" opacity="0.13"/><rect x="872" y="585" width="34" height="45" fill="#76c7b7" opacity="0.15500000000000003"/><rect x="944" y="572" width="34" height="58" fill="#76c7b7" opacity="0.08"/><rect x="1016" y="565" width="34" height="65" fill="#76c7b7" opacity="0.10500000000000001"/><rect x="1088" y="562" width="34" height="68" fill="#76c7b7" opacity="0.13"/><rect x="1160" y="560" width="34" height="70" fill="#76c7b7" opacity="0.15500000000000003"/>
  
    <path d="M190 620L455 160h350l285 460z" fill="#1e3031" stroke="#3e746e" stroke-width="6"/>
    <path d="M455 160v460M805 160v460M300 430h660M375 300h500" stroke="#76c7b7" stroke-width="8" opacity="0.35"/>
  
  <rect x="0" y="0" width="1280" height="720" fill="none" stroke="#76c7b7" stroke-width="10" opacity="0.18"/>
  <text x="86" y="112" fill="#76c7b7" font-family="Pretendard, Noto Sans KR, sans-serif" font-size="26" font-weight="700" opacity="0.9">STORY / T03</text>
</svg>
