<?xml version="1.0" encoding="UTF-8"?>
<svg xmlns="http://www.w3.org/2000/svg" width="1280" height="720" viewBox="0 0 1280 720" role="img" aria-labelledby="title desc">
  <title id="title">감압 사고</title>
  <desc id="desc">CRITICAL event illustration for DOWNLINK.</desc>
  <rect width="1280" height="720" fill="#1d1515"/>
  <rect x="72" y="70" width="1136" height="580" rx="18" fill="#311f1f" opacity="0.38"/>
  <path d="M0 640h1280M0 112h1280M88 0v720M1192 0v720" stroke="#7d3f3f" stroke-width="2" opacity="0.34"/>
  <rect x="80" y="574" width="34" height="56" fill="#d66b6b" opacity="0.08"/><rect x="152" y="582" width="34" height="48" fill="#d66b6b" opacity="0.10500000000000001"/><rect x="224" y="570" width="34" height="60" fill="#d66b6b" opacity="0.13"/><rect x="296" y="580" width="34" height="50" fill="#d66b6b" opacity="0.15500000000000003"/><rect x="368" y="569" width="34" height="61" fill="#d66b6b" opacity="0.08"/><rect x="440" y="580" width="34" height="50" fill="#d66b6b" opacity="0.10500000000000001"/><rect x="512" y="585" width="34" height="45" fill="#d66b6b" opacity="0.13"/><rect x="584" y="572" width="34" height="58" fill="#d66b6b" opacity="0.15500000000000003"/><rect x="656" y="581" width="34" height="49" fill="#d66b6b" opacity="0.08"/><rect x="728" y="570" width="34" height="60" fill="#d66b6b" opacity="0.10500000000000001"/><rect x="800" y="580" width="34" height="50" fill="#d66b6b" opacity="0.13"/><rect x="872" y="569" width="34" height="61" fill="#d66b6b" opacity="0.15500000000000003"/><rect x="944" y="564" width="34" height="66" fill="#d66b6b" opacity="0.08"/><rect x="1016" y="561" width="34" height="69" fill="#d66b6b" opacity="0.10500000000000001"/><rect x="1088" y="560" width="34" height="70" fill="#d66b6b" opacity="0.13"/><rect x="1160" y="575" width="34" height="55" fill="#d66b6b" opacity="0.15500000000000003"/>
  
    <circle cx="620" cy="350" r="170" fill="#311f1f" stroke="#d66b6b" stroke-width="8" opacity="0.9"/>
    <circle cx="620" cy="350" r="42" fill="#d66b6b" opacity="0.9"/>
    <path d="M620 350L760 260M620 350L480 260M620 350L620 520" stroke="#d66b6b" stroke-width="34" stroke-linecap="round" opacity="0.58"/>
    <path d="M190 240h240M810 240h240M190 470h240M810 470h240" stroke="#7d3f3f" stroke-width="18" stroke-linecap="round"/>
  
  <rect x="0" y="0" width="1280" height="720" fill="none" stroke="#d66b6b" stroke-width="10" opacity="0.18"/>
  <text x="86" y="112" fill="#d66b6b" font-family="Pretendard, Noto Sans KR, sans-serif" font-size="26" font-weight="700" opacity="0.9">CRITICAL / T39</text>
</svg>
