<?xml version="1.0" encoding="UTF-8"?>
<svg xmlns="http://www.w3.org/2000/svg" width="1280" height="720" viewBox="0 0 1280 720" role="img" aria-labelledby="title desc">
  <title id="title">자동 생일 축하</title>
  <desc id="desc">WORLD event illustration for DOWNLINK.</desc>
  <rect width="1280" height="720" fill="#15191f"/>
  <rect x="72" y="70" width="1136" height="580" rx="18" fill="#202936" opacity="0.38"/>
  <path d="M0 640h1280M0 112h1280M88 0v720M1192 0v720" stroke="#526375" stroke-width="2" opacity="0.34"/>
  <rect x="80" y="579" width="34" height="51" fill="#91a8c2" opacity="0.08"/><rect x="152" y="569" width="34" height="61" fill="#91a8c2" opacity="0.10500000000000001"/><rect x="224" y="564" width="34" height="66" fill="#91a8c2" opacity="0.13"/><rect x="296" y="561" width="34" height="69" fill="#91a8c2" opacity="0.15500000000000003"/><rect x="368" y="560" width="34" height="70" fill="#91a8c2" opacity="0.08"/><rect x="440" y="559" width="34" height="71" fill="#91a8c2" opacity="0.10500000000000001"/><rect x="512" y="575" width="34" height="55" fill="#91a8c2" opacity="0.13"/><rect x="584" y="583" width="34" height="47" fill="#91a8c2" opacity="0.15500000000000003"/><rect x="656" y="587" width="34" height="43" fill="#91a8c2" opacity="0.08"/><rect x="728" y="589" width="34" height="41" fill="#91a8c2" opacity="0.10500000000000001"/><rect x="800" y="590" width="34" height="40" fill="#91a8c2" opacity="0.13"/><rect x="872" y="590" width="34" height="40" fill="#91a8c2" opacity="0.15500000000000003"/><rect x="944" y="590" width="34" height="40" fill="#91a8c2" opacity="0.08"/><rect x="1016" y="590" width="34" height="40" fill="#91a8c2" opacity="0.10500000000000001"/><rect x="1088" y="574" width="34" height="56" fill="#91a8c2" opacity="0.13"/><rect x="1160" y="566" width="34" height="64" fill="#91a8c2" opacity="0.15500000000000003"/>
  
    <circle cx="620" cy="350" r="170" fill="#202936" stroke="#91a8c2" stroke-width="8" opacity="0.9"/>
    <circle cx="620" cy="350" r="42" fill="#91a8c2" opacity="0.9"/>
    <path d="M620 350L760 260M620 350L480 260M620 350L620 520" stroke="#91a8c2" stroke-width="34" stroke-linecap="round" opacity="0.58"/>
    <path d="M190 240h240M810 240h240M190 470h240M810 470h240" stroke="#526375" stroke-width="18" stroke-linecap="round"/>
  
  <rect x="0" y="0" width="1280" height="720" fill="none" stroke="#91a8c2" stroke-width="10" opacity="0.18"/>
  <text x="86" y="112" fill="#91a8c2" font-family="Pretendard, Noto Sans KR, sans-serif" font-size="26" font-weight="700" opacity="0.9">WORLD / W02</text>
</svg>
