<?xml version="1.0" encoding="UTF-8"?>
<svg xmlns="http://www.w3.org/2000/svg" width="1280" height="720" viewBox="0 0 1280 720" role="img" aria-labelledby="title desc">
  <title id="title">태양을 모르는 아이</title>
  <desc id="desc">WORLD event illustration for DOWNLINK.</desc>
  <rect width="1280" height="720" fill="#15191f"/>
  <rect x="72" y="70" width="1136" height="580" rx="18" fill="#202936" opacity="0.38"/>
  <path d="M0 640h1280M0 112h1280M88 0v720M1192 0v720" stroke="#526375" stroke-width="2" opacity="0.34"/>
  <rect x="80" y="574" width="34" height="56" fill="#91a8c2" opacity="0.08"/><rect x="152" y="582" width="34" height="48" fill="#91a8c2" opacity="0.10500000000000001"/><rect x="224" y="570" width="34" height="60" fill="#91a8c2" opacity="0.13"/><rect x="296" y="580" width="34" height="50" fill="#91a8c2" opacity="0.15500000000000003"/><rect x="368" y="585" width="34" height="45" fill="#91a8c2" opacity="0.08"/><rect x="440" y="572" width="34" height="58" fill="#91a8c2" opacity="0.10500000000000001"/><rect x="512" y="581" width="34" height="49" fill="#91a8c2" opacity="0.13"/><rect x="584" y="570" width="34" height="60" fill="#91a8c2" opacity="0.15500000000000003"/><rect x="656" y="580" width="34" height="50" fill="#91a8c2" opacity="0.08"/><rect x="728" y="585" width="34" height="45" fill="#91a8c2" opacity="0.10500000000000001"/><rect x="800" y="572" width="34" height="58" fill="#91a8c2" opacity="0.13"/><rect x="872" y="581" width="34" height="49" fill="#91a8c2" opacity="0.15500000000000003"/><rect x="944" y="570" width="34" height="60" fill="#91a8c2" opacity="0.08"/><rect x="1016" y="564" width="34" height="66" fill="#91a8c2" opacity="0.10500000000000001"/><rect x="1088" y="561" width="34" height="69" fill="#91a8c2" opacity="0.13"/><rect x="1160" y="560" width="34" height="70" fill="#91a8c2" opacity="0.15500000000000003"/>
  
    <path d="M140 430c140 -90 240 90 380 0s240 90 380 0 230 78 320 4" fill="none" stroke="#91a8c2" stroke-width="18" opacity="0.72"/>
    <path d="M180 500c150 -74 240 74 390 0s240 70 390 0" fill="none" stroke="#526375" stroke-width="12" opacity="0.75"/>
    <rect x="780" y="180" width="190" height="300" rx="26" fill="#202936" stroke="#91a8c2" stroke-width="6" opacity="0.82"/>
    <path d="M820 250h110M820 320h110M820 390h110" stroke="#526375" stroke-width="7"/>
  
  <rect x="0" y="0" width="1280" height="720" fill="none" stroke="#91a8c2" stroke-width="10" opacity="0.18"/>
  <text x="86" y="112" fill="#91a8c2" font-family="Pretendard, Noto Sans KR, sans-serif" font-size="26" font-weight="700" opacity="0.9">WORLD / W03</text>
</svg>
