<?xml version="1.0" encoding="UTF-8"?>
<svg xmlns="http://www.w3.org/2000/svg" width="1280" height="720" viewBox="0 0 1280 720" role="img" aria-labelledby="title desc">
  <title id="title">이하린 END. 단독 탈출</title>
  <desc id="desc">Ending illustration for DOWNLINK.</desc>
  <rect width="1280" height="720" fill="#111417"/>
  <rect x="62" y="60" width="1156" height="600" rx="20" fill="#1b2328" opacity="0.42"/>
  <path d="M80 600h1120M110 120h1060" stroke="#696150" stroke-width="3" opacity="0.5"/>
  <rect x="80" y="559" width="34" height="71" fill="#d4c6aa" opacity="0.08"/><rect x="152" y="559" width="34" height="71" fill="#d4c6aa" opacity="0.10500000000000001"/><rect x="224" y="575" width="34" height="55" fill="#d4c6aa" opacity="0.13"/><rect x="296" y="567" width="34" height="63" fill="#d4c6aa" opacity="0.15500000000000003"/><rect x="368" y="579" width="34" height="51" fill="#d4c6aa" opacity="0.08"/><rect x="440" y="569" width="34" height="61" fill="#d4c6aa" opacity="0.10500000000000001"/><rect x="512" y="580" width="34" height="50" fill="#d4c6aa" opacity="0.13"/><rect x="584" y="569" width="34" height="61" fill="#d4c6aa" opacity="0.15500000000000003"/><rect x="656" y="564" width="34" height="66" fill="#d4c6aa" opacity="0.08"/><rect x="728" y="561" width="34" height="69" fill="#d4c6aa" opacity="0.10500000000000001"/><rect x="800" y="560" width="34" height="70" fill="#d4c6aa" opacity="0.13"/><rect x="872" y="559" width="34" height="71" fill="#d4c6aa" opacity="0.15500000000000003"/><rect x="944" y="575" width="34" height="55" fill="#d4c6aa" opacity="0.08"/><rect x="1016" y="583" width="34" height="47" fill="#d4c6aa" opacity="0.10500000000000001"/><rect x="1088" y="571" width="34" height="59" fill="#d4c6aa" opacity="0.13"/><rect x="1160" y="565" width="34" height="65" fill="#d4c6aa" opacity="0.15500000000000003"/>
  
    <path d="M330 470c40 -160 120 -240 280 -240s240 98 240 220c0 110 -96 160 -226 160h-220c-62 0 -90 -50 -74 -140z" fill="#1b2328" stroke="#d4c6aa" stroke-width="7"/>
    <path d="M440 330c70 28 150 28 230 0M440 420c90 -34 170 -34 260 0" stroke="#696150" stroke-width="12" fill="none" opacity="0.82"/>
    <path d="M900 240q120 110 0 220M955 195q190 160 0 330" stroke="#d4c6aa" stroke-width="10" fill="none" opacity="0.45"/>
  
  <text x="86" y="112" fill="#d4c6aa" font-family="Pretendard, Noto Sans KR, sans-serif" font-size="26" font-weight="700" opacity="0.9">ENDING / HARIN_ESCAPE</text>
</svg>
