<?xml version="1.0" encoding="UTF-8"?>
<svg xmlns="http://www.w3.org/2000/svg" width="1280" height="720" viewBox="0 0 1280 720" role="img" aria-labelledby="title desc">
  <title id="title">윤서진 END. 생태 복원</title>
  <desc id="desc">Ending illustration for DOWNLINK.</desc>
  <rect width="1280" height="720" fill="#111417"/>
  <rect x="62" y="60" width="1156" height="600" rx="20" fill="#1b2328" opacity="0.42"/>
  <path d="M80 600h1120M110 120h1060" stroke="#696150" stroke-width="3" opacity="0.5"/>
  <rect x="80" y="587" width="34" height="43" fill="#d4c6aa" opacity="0.08"/><rect x="152" y="573" width="34" height="57" fill="#d4c6aa" opacity="0.10500000000000001"/><rect x="224" y="582" width="34" height="48" fill="#d4c6aa" opacity="0.13"/><rect x="296" y="570" width="34" height="60" fill="#d4c6aa" opacity="0.15500000000000003"/><rect x="368" y="580" width="34" height="50" fill="#d4c6aa" opacity="0.08"/><rect x="440" y="569" width="34" height="61" fill="#d4c6aa" opacity="0.10500000000000001"/><rect x="512" y="564" width="34" height="66" fill="#d4c6aa" opacity="0.13"/><rect x="584" y="577" width="34" height="53" fill="#d4c6aa" opacity="0.15500000000000003"/><rect x="656" y="584" width="34" height="46" fill="#d4c6aa" opacity="0.08"/><rect x="728" y="587" width="34" height="43" fill="#d4c6aa" opacity="0.10500000000000001"/><rect x="800" y="573" width="34" height="57" fill="#d4c6aa" opacity="0.13"/><rect x="872" y="582" width="34" height="48" fill="#d4c6aa" opacity="0.15500000000000003"/><rect x="944" y="570" width="34" height="60" fill="#d4c6aa" opacity="0.08"/><rect x="1016" y="580" width="34" height="50" fill="#d4c6aa" opacity="0.10500000000000001"/><rect x="1088" y="585" width="34" height="45" fill="#d4c6aa" opacity="0.13"/><rect x="1160" y="588" width="34" height="42" fill="#d4c6aa" opacity="0.15500000000000003"/>
  
    <circle cx="620" cy="350" r="170" fill="#1b2328" stroke="#d4c6aa" stroke-width="8" opacity="0.9"/>
    <circle cx="620" cy="350" r="42" fill="#d4c6aa" opacity="0.9"/>
    <path d="M620 350L760 260M620 350L480 260M620 350L620 520" stroke="#d4c6aa" stroke-width="34" stroke-linecap="round" opacity="0.58"/>
    <path d="M190 240h240M810 240h240M190 470h240M810 470h240" stroke="#696150" stroke-width="18" stroke-linecap="round"/>
  
  <text x="86" y="112" fill="#d4c6aa" font-family="Pretendard, Noto Sans KR, sans-serif" font-size="26" font-weight="700" opacity="0.9">ENDING / SEOJIN_RESTORE</text>
</svg>
